HIERARCHY
ROOT Hips
{
	OFFSET -36.914093 -31.906210 87.552063
	CHANNELS 6 Xposition Yposition Zposition Zrotation Yrotation Xrotation
	JOINT Spine
	{
		OFFSET 0.000000 2.080109 8.814247
		CHANNELS 6 Xposition Yposition Zposition Zrotation Yrotation Xrotation
		JOINT Spine1
		{
			OFFSET 0.000000 0.000000 8.844139
			CHANNELS 6 Xposition Yposition Zposition Zrotation Yrotation Xrotation
			JOINT Spine2
			{
				OFFSET 0.000000 0.000002 11.682266
				CHANNELS 6 Xposition Yposition Zposition Zrotation Yrotation Xrotation
				JOINT Spine3
				{
					OFFSET 0.000000 0.000000 11.746704
					CHANNELS 6 Xposition Yposition Zposition Zrotation Yrotation Xrotation
					JOINT Neck
					{
						OFFSET 0.000000 0.000002 17.658264
						CHANNELS 6 Xposition Yposition Zposition Zrotation Yrotation Xrotation
						JOINT Neck1
						{
							OFFSET 0.000000 0.000000 5.101517
							CHANNELS 6 Xposition Yposition Zposition Zrotation Yrotation Xrotation
							JOINT Head
							{
								OFFSET 0.000000 0.000000 5.101517
								CHANNELS 6 Xposition Yposition Zposition Zrotation Yrotation Xrotation
								JOINT HeadEnd
								{
									OFFSET 0.000000 0.000002 11.655090
									CHANNELS 6 Xposition Yposition Zposition Zrotation Yrotation Xrotation
									End Site
									{
										OFFSET 0.000000 0.000000 0.100006
									}
								}
							}
						}
					}
					JOINT RightShoulder
					{
						OFFSET -2.625389 0.000002 11.175217
						CHANNELS 6 Xposition Yposition Zposition Zrotation Yrotation Xrotation
						JOINT RightArm
						{
							OFFSET 0.000000 0.000000 10.434723
							CHANNELS 6 Xposition Yposition Zposition Zrotation Yrotation Xrotation
							JOINT RightForeArm
							{
								OFFSET 0.000000 0.000002 29.628418
								CHANNELS 6 Xposition Yposition Zposition Zrotation Yrotation Xrotation
								JOINT RightHand
								{
									OFFSET 0.000000 0.000002 22.857605
									CHANNELS 6 Xposition Yposition Zposition Zrotation Yrotation Xrotation
									JOINT RightHandThumb1
									{
										OFFSET -2.867325 -2.944292 3.959564
										CHANNELS 6 Xposition Yposition Zposition Zrotation Yrotation Xrotation
										JOINT RightHandThumb2
										{
											OFFSET 0.000000 0.000000 3.350403
											CHANNELS 6 Xposition Yposition Zposition Zrotation Yrotation Xrotation
											JOINT RightHandThumb3
											{
												OFFSET 0.000000 0.000000 3.756516
												CHANNELS 6 Xposition Yposition Zposition Zrotation Yrotation Xrotation
												JOINT RightHandThumb4
												{
													OFFSET 0.000000 0.000000 3.147339
													CHANNELS 6 Xposition Yposition Zposition Zrotation Yrotation Xrotation
													End Site
													{
														OFFSET 0.000000 0.000000 0.100006
													}
												}
											}
										}
									}
									JOINT RightHandIndex1
									{
										OFFSET -0.086754 -2.345282 10.030899
										CHANNELS 6 Xposition Yposition Zposition Zrotation Yrotation Xrotation
										JOINT RightHandIndex2
										{
											OFFSET 0.000000 0.000000 4.061096
											CHANNELS 6 Xposition Yposition Zposition Zrotation Yrotation Xrotation
											JOINT RightHandIndex3
											{
												OFFSET 0.000000 0.000000 3.248871
												CHANNELS 6 Xposition Yposition Zposition Zrotation Yrotation Xrotation
												JOINT RightHandIndex4
												{
													OFFSET 0.000000 0.000000 2.639709
													CHANNELS 6 Xposition Yposition Zposition Zrotation Yrotation Xrotation
													End Site
													{
														OFFSET 0.000000 0.000000 0.100006
													}
												}
											}
										}
									}
									JOINT RightHandMiddle1
									{
										OFFSET 0.104103 -0.006767 9.502945
										CHANNELS 6 Xposition Yposition Zposition Zrotation Yrotation Xrotation
										JOINT RightHandMiddle2
										{
											OFFSET 0.000000 0.000002 4.568726
											CHANNELS 6 Xposition Yposition Zposition Zrotation Yrotation Xrotation
											JOINT RightHandMiddle3
											{
												OFFSET 0.000000 0.000000 3.654984
												CHANNELS 6 Xposition Yposition Zposition Zrotation Yrotation Xrotation
												JOINT RightHandMiddle4
												{
													OFFSET 0.000000 0.000000 2.741241
													CHANNELS 6 Xposition Yposition Zposition Zrotation Yrotation Xrotation
													End Site
													{
														OFFSET 0.000000 0.000000 0.100006
													}
												}
											}
										}
									}
									JOINT RightHandRing1
									{
										OFFSET 0.086754 2.267443 8.921707
										CHANNELS 6 Xposition Yposition Zposition Zrotation Yrotation Xrotation
										JOINT RightHandRing2
										{
											OFFSET 0.000000 0.000002 4.061096
											CHANNELS 6 Xposition Yposition Zposition Zrotation Yrotation Xrotation
											JOINT RightHandRing3
											{
												OFFSET 0.000000 0.000000 3.654984
												CHANNELS 6 Xposition Yposition Zposition Zrotation Yrotation Xrotation
												JOINT RightHandRing4
												{
													OFFSET 0.000000 0.000000 2.741241
													CHANNELS 6 Xposition Yposition Zposition Zrotation Yrotation Xrotation
													End Site
													{
														OFFSET 0.000000 0.000000 0.100006
													}
												}
											}
										}
									}
									JOINT RightHandPinky1
									{
										OFFSET -0.173504 4.467199 7.976990
										CHANNELS 6 Xposition Yposition Zposition Zrotation Yrotation Xrotation
										JOINT RightHandPinky2
										{
											OFFSET 0.000000 0.000000 3.350403
											CHANNELS 6 Xposition Yposition Zposition Zrotation Yrotation Xrotation
											JOINT RightHandPinky3
											{
												OFFSET 0.000000 0.000002 2.842758
												CHANNELS 6 Xposition Yposition Zposition Zrotation Yrotation Xrotation
												JOINT RightHandPinky4
												{
													OFFSET 0.000000 0.000000 2.639709
													CHANNELS 6 Xposition Yposition Zposition Zrotation Yrotation Xrotation
													End Site
													{
														OFFSET 0.000000 0.000000 0.100006
													}
												}
											}
										}
									}
									JOINT RightForeArmEnd
									{
										OFFSET 0.000000 0.000000 0.000000
										CHANNELS 6 Xposition Yposition Zposition Zrotation Yrotation Xrotation
										End Site
										{
											OFFSET 0.000000 0.000000 0.100006
										}
									}
								}
								JOINT RightArmEnd
								{
									OFFSET 0.000000 0.000000 0.000000
									CHANNELS 6 Xposition Yposition Zposition Zrotation Yrotation Xrotation
									End Site
									{
										OFFSET 0.000000 0.000000 0.100006
									}
								}
							}
						}
					}
					JOINT LeftShoulder
					{
						OFFSET 2.625389 0.000002 11.175217
						CHANNELS 6 Xposition Yposition Zposition Zrotation Yrotation Xrotation
						JOINT LeftArm
						{
							OFFSET 0.000000 0.000000 10.813629
							CHANNELS 6 Xposition Yposition Zposition Zrotation Yrotation Xrotation
							JOINT LeftForeArm
							{
								OFFSET 0.000000 0.000002 28.724777
								CHANNELS 6 Xposition Yposition Zposition Zrotation Yrotation Xrotation
								JOINT LeftHand
								{
									OFFSET 0.644382 0.328873 25.716171
									CHANNELS 6 Xposition Yposition Zposition Zrotation Yrotation Xrotation
									JOINT LeftHandThumb1
									{
										OFFSET 2.867323 -2.944290 3.959564
										CHANNELS 6 Xposition Yposition Zposition Zrotation Yrotation Xrotation
										JOINT LeftHandThumb2
										{
											OFFSET 0.000000 0.000000 3.350403
											CHANNELS 6 Xposition Yposition Zposition Zrotation Yrotation Xrotation
											JOINT LeftHandThumb3
											{
												OFFSET 0.000000 0.000000 3.756516
												CHANNELS 6 Xposition Yposition Zposition Zrotation Yrotation Xrotation
												JOINT LeftHandThumb4
												{
													OFFSET 0.000000 0.000000 3.100006
													CHANNELS 6 Xposition Yposition Zposition Zrotation Yrotation Xrotation
													End Site
													{
														OFFSET 0.000000 0.000000 0.100006
													}
												}
											}
										}
									}
									JOINT LeftHandIndex1
									{
										OFFSET 0.086754 -2.345278 10.030899
										CHANNELS 6 Xposition Yposition Zposition Zrotation Yrotation Xrotation
										JOINT LeftHandIndex2
										{
											OFFSET 0.000000 0.000000 4.061096
											CHANNELS 6 Xposition Yposition Zposition Zrotation Yrotation Xrotation
											JOINT LeftHandIndex3
											{
												OFFSET 0.000000 0.000000 3.248871
												CHANNELS 6 Xposition Yposition Zposition Zrotation Yrotation Xrotation
												JOINT LeftHandIndex4
												{
													OFFSET 0.000000 0.000000 2.639709
													CHANNELS 6 Xposition Yposition Zposition Zrotation Yrotation Xrotation
													End Site
													{
														OFFSET 0.000000 0.000000 0.100006
													}
												}
											}
										}
									}
									JOINT LeftHandMiddle1
									{
										OFFSET -0.104103 -0.006767 9.502945
										CHANNELS 6 Xposition Yposition Zposition Zrotation Yrotation Xrotation
										JOINT LeftHandMiddle2
										{
											OFFSET 0.000000 0.000002 4.568726
											CHANNELS 6 Xposition Yposition Zposition Zrotation Yrotation Xrotation
											JOINT LeftHandMiddle3
											{
												OFFSET 0.000000 0.000000 3.654984
												CHANNELS 6 Xposition Yposition Zposition Zrotation Yrotation Xrotation
												JOINT LeftHandMiddle4
												{
													OFFSET 0.000000 0.000000 2.741241
													CHANNELS 6 Xposition Yposition Zposition Zrotation Yrotation Xrotation
													End Site
													{
														OFFSET 0.000000 0.000000 0.100006
													}
												}
											}
										}
									}
									JOINT LeftHandRing1
									{
										OFFSET -0.086754 2.267443 8.921707
										CHANNELS 6 Xposition Yposition Zposition Zrotation Yrotation Xrotation
										JOINT LeftHandRing2
										{
											OFFSET 0.000000 0.000002 4.061096
											CHANNELS 6 Xposition Yposition Zposition Zrotation Yrotation Xrotation
											JOINT LeftHandRing3
											{
												OFFSET 0.000000 0.000000 3.654984
												CHANNELS 6 Xposition Yposition Zposition Zrotation Yrotation Xrotation
												JOINT LeftHandRing4
												{
													OFFSET 0.000000 0.000000 2.741241
													CHANNELS 6 Xposition Yposition Zposition Zrotation Yrotation Xrotation
													End Site
													{
														OFFSET 0.000000 0.000000 0.100006
													}
												}
											}
										}
									}
									JOINT LeftHandPinky1
									{
										OFFSET 0.173504 4.467199 7.976990
										CHANNELS 6 Xposition Yposition Zposition Zrotation Yrotation Xrotation
										JOINT LeftHandPinky2
										{
											OFFSET 0.000000 0.000002 3.350403
											CHANNELS 6 Xposition Yposition Zposition Zrotation Yrotation Xrotation
											JOINT LeftHandPinky3
											{
												OFFSET 0.000000 0.000000 2.842758
												CHANNELS 6 Xposition Yposition Zposition Zrotation Yrotation Xrotation
												JOINT LeftHandPinky4
												{
													OFFSET 0.000000 0.000000 2.639709
													CHANNELS 6 Xposition Yposition Zposition Zrotation Yrotation Xrotation
													End Site
													{
														OFFSET 0.000000 0.000000 0.100006
													}
												}
											}
										}
									}
									JOINT LeftForeArmEnd
									{
										OFFSET 0.000000 0.000000 0.000000
										CHANNELS 6 Xposition Yposition Zposition Zrotation Yrotation Xrotation
										End Site
										{
											OFFSET 0.000000 0.000000 0.100006
										}
									}
								}
								JOINT LeftArmEnd
								{
									OFFSET 0.000000 0.000000 0.000000
									CHANNELS 6 Xposition Yposition Zposition Zrotation Yrotation Xrotation
									End Site
									{
										OFFSET 0.000000 0.000000 0.100006
									}
								}
							}
						}
					}
				}
			}
		}
	}
	JOINT RightUpLeg
	{
		OFFSET -11.289944 0.000000 0.000000
		CHANNELS 6 Xposition Yposition Zposition Zrotation Yrotation Xrotation
		JOINT RightLeg
		{
			OFFSET 0.000000 -0.000002 -38.200321
			CHANNELS 6 Xposition Yposition Zposition Zrotation Yrotation Xrotation
			JOINT RightFoot
			{
				OFFSET 0.000000 -0.000004 -39.900856
				CHANNELS 6 Xposition Yposition Zposition Zrotation Yrotation Xrotation
				JOINT RightToeBase
				{
					OFFSET 0.000000 -15.261639 0.000001
					CHANNELS 6 Xposition Yposition Zposition Zrotation Yrotation Xrotation
					JOINT RightToeBaseEnd
					{
						OFFSET 0.000000 -7.370708 0.000000
						CHANNELS 6 Xposition Yposition Zposition Zrotation Yrotation Xrotation
						End Site
						{
							OFFSET 0.000000 0.000000 0.100000
						}
					}
				}
				JOINT RightLegEnd
				{
					OFFSET 0.000000 0.000000 0.000000
					CHANNELS 6 Xposition Yposition Zposition Zrotation Yrotation Xrotation
					End Site
					{
						OFFSET 0.000000 0.000000 0.100000
					}
				}
			}
			JOINT RightUpLegEnd
			{
				OFFSET 0.000000 0.000000 0.000000
				CHANNELS 6 Xposition Yposition Zposition Zrotation Yrotation Xrotation
				End Site
				{
					OFFSET 0.000000 0.000000 0.099998
				}
			}
		}
	}
	JOINT LeftUpLeg
	{
		OFFSET 11.315662 0.000000 0.000000
		CHANNELS 6 Xposition Yposition Zposition Zrotation Yrotation Xrotation
		JOINT LeftLeg
		{
			OFFSET 0.000000 -0.000002 -38.200321
			CHANNELS 6 Xposition Yposition Zposition Zrotation Yrotation Xrotation
			JOINT LeftFoot
			{
				OFFSET 0.000000 -0.000004 -39.900856
				CHANNELS 6 Xposition Yposition Zposition Zrotation Yrotation Xrotation
				JOINT LeftToeBase
				{
					OFFSET 0.000000 -15.261639 0.000001
					CHANNELS 6 Xposition Yposition Zposition Zrotation Yrotation Xrotation
					JOINT LeftToeBaseEnd
					{
						OFFSET 0.000000 -7.539997 0.000000
						CHANNELS 6 Xposition Yposition Zposition Zrotation Yrotation Xrotation
						End Site
						{
							OFFSET 0.000000 0.000000 0.100000
						}
					}
				}
				JOINT LeftLegEnd
				{
					OFFSET 0.000000 0.000000 0.000000
					CHANNELS 6 Xposition Yposition Zposition Zrotation Yrotation Xrotation
					End Site
					{
						OFFSET 0.000000 0.000000 0.100000
					}
				}
			}
			JOINT LeftUpLegEnd
			{
				OFFSET 0.000000 0.000000 0.000000
				CHANNELS 6 Xposition Yposition Zposition Zrotation Yrotation Xrotation
				End Site
				{
					OFFSET 0.000000 0.000000 0.099998
				}
			}
		}
	}
}
MOTION
Frames: 2
Frame Time: 0.016667
-41.936699 -12.898977 84.453217 -54.244352 12.051887 -13.451522 0.000001 2.080106 8.814252 -0.694881 -5.550481 4.456879 -0.000005 -0.000009 8.844147 -1.787483 -5.486030 0.909312 -0.000004 0.000002 11.682255 -3.235630 -8.082586 9.109134 -0.000001 -0.000002 11.746704 0.029794 -1.699660 3.759921 -0.000007 -0.000022 17.658274 18.075969 -10.468108 31.007198 -0.000001 0.000002 5.101519 18.823110 -1.143054 2.875967 0.000008 0.000001 5.101514 3.274028 4.755698 -21.317953 -0.000013 -0.000005 11.655118 0.000001 -0.000004 0.000000 -2.625383 -0.000006 11.175226 3.426716 -94.037478 -0.423949 -0.000001 -0.000005 10.434721 -14.251206 -70.171233 51.558055 -0.000001 0.000003 29.628416 28.959442 -0.631364 126.510198 -0.000000 0.000016 22.857620 76.108641 -38.029411 -21.148149 -2.867317 -2.944283 3.959553 32.220622 -14.232650 56.352872 0.000002 0.000006 3.350404 -6.069826 4.961964 -11.486754 -0.000003 0.000002 3.756515 -4.107954 3.576624 -7.916124 -0.000010 0.000005 3.147354 -0.000003 -0.000001 -0.000001 -0.086758 -2.345278 10.030880 -7.056345 7.194045 -7.470613 0.000010 -0.000001 4.061076 0.517008 0.000045 0.000011 -0.000001 0.000002 3.248876 0.016476 -0.000009 0.000741 0.000002 0.000000 2.639709 0.000000 0.000000 0.000002 0.104103 -0.006762 9.502952 -3.477412 -0.904417 -10.988298 0.000008 0.000008 4.568703 0.500657 -0.167559 0.008774 -0.000009 0.000001 3.655006 0.000352 -0.167574 0.008786 0.000003 0.000010 2.741242 0.000000 0.000001 0.000001 0.086757 2.267451 8.921713 -1.441380 -33.724127 -5.861609 -0.000028 0.000011 4.061099 -0.661755 -24.217937 -1.576441 -0.000022 0.000003 3.654998 0.338241 -24.217914 -1.576439 -0.000002 0.000000 2.741241 -0.000001 -0.000001 -0.000000 -0.173535 4.467204 7.977000 8.762227 -66.213855 -17.025271 -0.000017 -0.000001 3.350417 3.246562 -46.998371 -12.030700 -0.000001 0.000005 2.842771 5.246518 -46.998375 -12.030687 -0.000004 0.000002 2.639710 -0.000002 0.000000 -0.000001 -0.000007 0.000005 0.000003 0.000001 0.000003 -0.000001 -0.000001 0.000002 -0.000001 0.000001 -0.000001 0.000000 2.625398 -0.000003 11.175218 -3.764587 96.376797 -0.845181 -0.000004 -0.000004 10.813632 53.275400 54.890921 44.486118 -0.000001 -0.000012 28.724766 -12.581089 5.123660 43.611407 0.644375 0.328860 25.716160 -26.257334 1.272007 -19.518261 2.867327 -2.944287 3.959543 -31.644741 17.093511 51.775214 -0.000014 0.000021 3.350426 12.294157 -8.270832 -22.247335 0.000002 -0.000005 3.756531 8.188322 -6.261995 -15.232037 -0.000002 -0.000003 3.099990 -0.000001 -0.000001 0.000001 0.086759 -2.345284 10.030910 -5.106724 17.749543 -14.711951 0.000004 -0.000001 4.061121 0.255744 13.879682 -1.996617 0.000006 0.000003 3.248853 -0.236202 13.880082 -1.992976 0.000001 -0.000003 2.639680 -0.000001 0.000002 0.000000 -0.104089 -0.006767 9.502964 0.428336 21.523736 -11.742633 -0.000001 0.000002 4.568738 0.377122 15.767295 -0.851096 -0.000001 0.000002 3.654996 -0.122242 15.767282 -0.851299 -0.000004 -0.000006 2.741242 0.000001 0.000002 0.000002 -0.086752 2.267439 8.921706 10.910388 29.702775 -0.905169 0.000009 0.000002 4.061126 -0.746402 20.982266 1.352237 0.000003 0.000001 3.654999 0.254345 20.982251 1.349395 -0.000000 -0.000003 2.741273 -0.000001 0.000001 -0.000001 0.173505 4.467196 7.976994 22.750320 33.495155 11.391133 -0.000001 0.000001 3.350423 -0.892726 24.507583 5.086610 -0.000006 0.000000 2.842762 1.109933 24.507602 5.085826 -0.000005 -0.000002 2.639724 0.000001 -0.000002 -0.000000 -0.000001 -0.000004 -0.000001 -0.000004 -0.000001 0.000001 -0.000003 -0.000000 0.000013 0.000002 -0.000002 0.000001 -11.289948 -0.000002 -0.000003 9.329834 -21.413874 9.727240 -0.000002 -0.000002 -38.200329 0.108981 -0.031691 13.022304 0.000001 -0.000003 -39.900856 -10.938061 12.047856 14.012965 -0.000003 -15.261646 -0.000003 -0.446222 -0.289265 -26.784413 0.000001 -7.370707 -0.000000 0.000002 -0.000000 -0.000000 -0.000000 -0.000004 -0.000001 0.000000 -0.000002 0.000004 -0.000002 0.000001 -0.000000 -0.000003 -0.000000 -0.000000 11.315665 0.000002 -0.000013 -28.758050 -9.794346 0.379107 0.000001 0.000002 -38.200333 -0.106187 0.271991 69.529919 0.000000 0.000001 -39.900856 4.051429 -6.124288 43.059486 -0.000001 -15.261634 0.000004 2.740547 5.847256 -67.167220 0.000001 -7.540002 -0.000000 0.000002 -0.000001 -0.000001 0.000000 0.000002 0.000002 -0.000001 -0.000000 0.000000 0.000000 0.000005 0.000001 -0.000000 0.000000 -0.000002 
-41.941757 -12.895380 84.451744 -54.251909 12.060991 -13.445053 -0.000010 2.080101 8.814257 -0.695199 -5.551091 4.459810 -0.000008 -0.000006 8.844147 -1.789707 -5.496120 0.904010 -0.000002 0.000001 11.682264 -3.250995 -8.094810 9.125963 -0.000003 -0.000008 11.746699 0.028332 -1.696343 3.758011 -0.000004 -0.000011 17.658276 18.100430 -10.421837 30.958420 0.000001 -0.000006 5.101516 18.832949 -1.128622 2.850017 0.000005 0.000000 5.101514 3.272643 4.766897 -21.324851 0.000007 0.000002 11.655091 0.000000 0.000001 0.000000 -2.625388 0.000005 11.175209 3.428465 -94.052764 -0.424509 -0.000004 -0.000005 10.434727 -14.276320 -70.135463 51.590987 -0.000003 0.000009 29.628448 29.018025 -0.630893 126.598950 -0.000001 0.000002 22.857611 74.906780 -37.739336 -20.985196 -2.867316 -2.944304 3.959574 32.220632 -14.232659 56.352848 0.000010 0.000006 3.350423 -6.069818 4.961964 -11.486791 -0.000009 -0.000006 3.756509 -4.107945 3.576640 -7.916092 -0.000001 0.000005 3.147339 0.000000 0.000000 0.000001 -0.086751 -2.345276 10.030920 -7.113904 6.597099 -8.294128 0.000004 0.000005 4.061089 0.517497 0.000044 0.000013 0.000004 0.000005 3.248883 0.016512 -0.000010 0.000727 0.000004 -0.000002 2.639725 -0.000000 -0.000000 -0.000001 0.104095 -0.006758 9.502929 -3.526951 -1.285969 -11.773415 -0.000008 0.000003 4.568760 0.500461 -0.404561 0.021200 -0.000005 0.000006 3.654998 0.000139 -0.404566 0.021201 -0.000003 0.000004 2.741256 0.000001 -0.000000 0.000002 0.086745 2.267452 8.921724 -1.545704 -34.219869 -6.169089 0.000005 0.000003 4.061091 -0.650488 -24.587677 -1.603720 -0.000021 0.000002 3.654976 0.349511 -24.587656 -1.603719 -0.000005 -0.000004 2.741226 -0.000001 -0.000000 0.000000 -0.173536 4.467203 7.976981 8.966344 -67.099246 -17.073350 -0.000001 0.000004 3.350435 3.424950 -47.560376 -12.273508 -0.000003 0.000005 2.842761 5.424897 -47.560380 -12.273493 0.000000 0.000001 2.639740 0.000001 -0.000000 0.000000 -0.000005 0.000001 0.000014 0.000000 -0.000001 0.000001 -0.000001 0.000001 0.000017 -0.000000 0.000001 -0.000001 2.625384 0.000002 11.175218 -3.767655 96.378641 -0.843670 0.000001 0.000002 10.813632 53.289962 54.897806 44.492948 -0.000010 0.000009 28.724785 -12.601479 5.129992 43.608859 0.644363 0.328865 25.716164 -26.240663 1.266203 -19.522448 2.867332 -2.944287 3.959572 -31.644738 17.093498 51.775265 -0.000000 -0.000008 3.350400 12.294165 -8.270805 -22.247427 -0.000003 -0.000004 3.756541 8.188295 -6.262011 -15.231988 0.000001 -0.000004 3.100006 0.000000 0.000000 -0.000000 0.086763 -2.345284 10.030950 -5.106053 17.773158 -14.715463 0.000006 0.000002 4.061125 0.256005 13.896421 -1.998049 -0.000007 -0.000003 3.248872 -0.235727 13.896340 -1.993781 -0.000007 -0.000003 2.639692 -0.000001 -0.000003 0.000001 -0.104096 -0.006773 9.502989 0.429726 21.545053 -11.744061 0.000000 -0.000002 4.568741 0.377156 15.782335 -0.849850 0.000007 -0.000000 3.655020 -0.122253 15.782202 -0.850784 -0.000008 -0.000005 2.741271 0.000000 -0.000000 0.000002 -0.086741 2.267442 8.921764 10.913246 29.719068 -0.905383 0.000006 -0.000001 4.061127 -0.746619 20.993806 1.352398 0.000004 -0.000003 3.654984 0.254503 20.993864 1.349545 -0.000003 0.000007 2.741271 0.000000 -0.000002 0.000001 0.173511 4.467196 7.977034 22.756160 33.507484 11.391360 -0.000006 -0.000005 3.350396 -0.891639 24.513634 5.088923 -0.000010 -0.000006 2.842761 1.110757 24.513450 5.087949 0.000001 -0.000014 2.639709 -0.000002 0.000001 0.000003 -0.000006 -0.000004 0.000032 0.000002 0.000001 -0.000001 -0.000010 -0.000012 0.000015 0.000000 0.000001 0.000002 -11.289957 -0.000007 0.000005 9.329040 -21.423860 9.728700 -0.000001 -0.000005 -38.200317 0.109699 -0.031755 13.012300 0.000001 -0.000005 -39.900860 -10.927775 12.054393 14.021070 0.000005 -15.261640 -0.000002 -0.446800 -0.289313 -26.785229 -0.000002 -7.370703 -0.000000 -0.000002 -0.000000 0.000000 0.000004 0.000001 0.000001 0.000004 0.000001 0.000003 0.000002 -0.000001 -0.000005 -0.000001 -0.000001 -0.000000 11.315661 -0.000010 -0.000000 -28.756288 -9.805174 0.375845 0.000003 -0.000006 -38.200321 -0.106129 0.272076 69.539802 -0.000000 0.000000 -39.900856 4.070603 -6.125377 43.057454 -0.000003 -15.261642 -0.000002 2.738790 5.849955 -67.154447 0.000003 -7.540000 0.000000 -0.000001 -0.000001 0.000001 -0.000002 0.000000 0.000001 -0.000000 0.000001 -0.000001 0.000003 0.000003 -0.000010 -0.000000 0.000000 -0.000003 
